# xmcd CD database file
#
# Track frame offsets:
#	150
#	18366
#	36908
#	53720
#	75504
#	94601
#	105804
#	124964
#	140113
#	157409
#	175144
#	196629
#
# Disc length: 2886 seconds
#
# Revision: 1
# Processed by: cddbd v1.5.2PL0 Copyright (c) Steve Scherf et al.
# Submitted via: CDex 1.51
#
DISCID=950b440c
DTITLE=Scornage - 2006 Pure Motorized Instinct
DYEAR=2006
DGENRE=Heavy Metal
TTITLE0=Scared to be
TTITLE1=Pure motorized instinct
TTITLE2=Blood splattered banner
TTITLE3=I am your fear
TTITLE4=Keep it to yourself
TTITLE5=Higher
TTITLE6=Ahead of the pack
TTITLE7=Abgrund
TTITLE8=Ship of fools
TTITLE9=The ancient one
TTITLE10=The end of the foodchain
TTITLE11=When there is no more room in hell
EXTD=YEAR: 2006
EXTT0=
EXTT1=
EXTT2=
EXTT3=
EXTT4=
EXTT5=
EXTT6=
EXTT7=
EXTT8=
EXTT9=
EXTT10=
EXTT11=
PLAYORDER=
